PathFileType	4	(X/Y/Z)	C:\MyCloud\GitHub\OpenSimScripting\Matlab\Data\Gait2354_Simbody\Static_Marker.trc	
DataRate	CameraRate	NumFrames	NumMarkers	Units	OrigDataRate	OrigDataStartFrame	OrigNumFrames
100	100	8	33	mm	100	13	100
Frame#	Time	C7			CLAV			STRN			LSHO			RSHO			LASIS			RLSIS			LPSIS			RPSIS			LGTF			LLCF			LMCF			LAF			RGTF			RLCF			RMCF			RAF			RFH			RANK			RMANK			RATT			LFH			LANK			LMANK			LATT			LHEE			L5MT			LTOE			L1MT			RHEE			R5MT			RTOE			R1MT			
		X1	Y1	Z1	X2	Y2	Z2	X3	Y3	Z3	X4	Y4	Z4	X5	Y5	Z5	X6	Y6	Z6	X7	Y7	Z7	X8	Y8	Z8	X9	Y9	Z9	X10	Y10	Z10	X11	Y11	Z11	X12	Y12	Z12	X13	Y13	Z13	X14	Y14	Z14	X15	Y15	Z15	X16	Y16	Z16	X17	Y17	Z17	X18	Y18	Z18	X19	Y19	Z19	X20	Y20	Z20	X21	Y21	Z21	X22	Y22	Z22	X23	Y23	Z23	X24	Y24	Z24	X25	Y25	Z25	X26	Y26	Z26	X27	Y27	Z27	X28	Y28	Z28	X29	Y29	Z29	X30	Y30	Z30	X31	Y31	Z31	X32	Y32	Z32	X33	Y33	Z33	

13	0.13000	370.56668	1587.01392	-42.12711	527.61157	1497.81958	-27.90937	555.47247	1436.98584	-35.70902	428.95691	1561.40662	-146.70111	417.45599	1560.60925	73.21127	505.03406	990.38629	-180.62456	503.01761	997.43756	115.66792	299.06796	1023.56726	-74.68560	304.76105	1024.27466	-8.92839	391.35147	881.32928	-214.12611	459.66998	517.79468	-219.74391	448.48398	516.11761	-91.86703	531.92725	798.99127	-200.88040	437.64313	879.54224	149.33231	478.00958	514.99866	148.57420	442.89197	496.88989	22.92551	539.93213	618.79974	97.32681	451.65955	455.28284	169.62408	386.43381	48.35228	144.08289	403.20102	75.09010	47.86192	496.33914	424.98489	118.52688	431.87515	471.49484	-233.42731	384.15784	54.27036	-200.83015	402.52390	78.54458	-106.37923	479.06995	428.41528	-192.21519	336.15833	67.01846	-153.16974	502.23203	9.40464	-229.80531	589.21576	30.46820	-145.35072	531.07520	22.68278	-106.12660	332.75369	72.01423	101.56107	496.04056	19.10851	174.18712	583.34412	27.65669	100.63673	527.09656	22.61690	54.87450	
14	0.14000	370.57590	1587.06238	-42.09227	527.58795	1497.87280	-27.87035	555.49030	1437.05920	-35.67572	428.99722	1561.48425	-146.69600	417.51740	1560.68384	73.22897	505.06976	990.44562	-180.68604	503.02002	997.53503	115.64117	299.04642	1023.65271	-74.74229	304.76013	1024.35254	-8.92964	391.26791	881.37573	-214.13152	459.60236	517.83783	-219.76476	448.42087	516.25220	-91.92682	531.86768	799.08923	-200.92305	437.70096	879.61072	149.25357	478.03601	515.09460	148.56079	442.91412	496.96722	22.88181	539.94385	618.82935	97.24493	451.68149	455.36221	169.55746	386.41946	48.45970	144.01224	403.16345	75.22184	47.81099	496.33362	425.15009	118.55078	431.78149	471.57129	-233.44701	384.12582	54.36938	-200.85887	402.45651	78.68975	-106.38793	479.02615	428.52615	-192.20302	336.13367	67.13647	-153.25610	502.16000	9.50123	-229.80557	589.17230	30.57285	-145.34589	531.04156	22.76549	-106.09921	332.72302	72.08734	101.49455	496.01996	19.23849	174.20753	583.33887	27.76588	100.63216	527.07404	22.83120	54.91321	
15	0.15000	370.58755	1587.06592	-42.09918	527.64545	1497.83423	-27.85949	555.53766	1437.03284	-35.62715	429.07275	1561.47461	-146.67554	417.57462	1560.71558	73.23965	505.02213	990.42657	-180.72807	503.08768	997.55481	115.56577	299.06946	1023.61597	-74.73180	304.78229	1024.31360	-8.93943	391.30637	881.33105	-214.13434	459.62769	517.80609	-219.79170	448.48068	516.29694	-91.92864	531.87854	799.07275	-200.95645	437.75931	879.62982	149.19852	478.07904	515.09650	148.50032	443.04092	497.01279	22.89128	540.01538	618.87280	97.22311	451.73630	455.40530	169.53120	386.41623	48.43518	144.00774	403.20807	75.23278	47.76303	496.38287	425.11908	118.52254	431.78256	471.53558	-233.45569	384.13873	54.41019	-200.90587	402.46033	78.67652	-106.44589	479.03949	428.51053	-192.23900	336.14175	67.14488	-153.23405	502.14978	9.44139	-229.83467	589.17188	30.59037	-145.38193	531.05872	22.77902	-106.12056	332.74509	72.10388	101.49268	496.01706	19.27786	174.21835	583.34753	27.76983	100.61842	527.06488	22.68258	54.86080	
16	0.16000	370.61655	1587.01672	-42.01982	527.76044	1497.80347	-27.83141	555.58704	1436.97192	-35.61677	429.11606	1561.41833	-146.63899	417.57773	1560.60864	73.29305	505.01099	990.43866	-180.81070	503.12613	997.46759	115.55013	299.06604	1023.55212	-74.63931	304.80148	1024.26660	-8.87725	391.30270	881.34589	-214.11781	459.57907	517.75092	-219.81331	448.51440	516.15240	-91.95669	531.91547	799.06671	-201.04362	437.80515	879.56403	149.23927	478.13992	515.03918	148.48462	443.01147	496.91727	22.84669	540.06610	618.86731	97.15832	451.81668	455.29575	169.51030	386.42023	48.37711	144.01723	403.19742	75.12521	47.81166	496.43665	425.03094	118.44798	431.81537	471.54486	-233.48468	384.13824	54.29529	-200.82317	402.46671	78.55003	-106.39738	479.06265	428.45551	-192.28542	336.15619	67.09202	-153.16966	502.14651	9.53205	-229.84769	589.20898	30.55207	-145.34148	531.06403	22.72779	-106.12057	332.74649	72.07731	101.55302	495.99042	19.21999	174.22623	583.34540	27.73422	100.62137	527.07837	22.70500	54.88076	
17	0.17000	370.65002	1587.05103	-41.98156	527.75909	1497.77612	-27.83318	555.60260	1436.96350	-35.60025	429.18546	1561.46191	-146.61630	417.66391	1560.66003	73.32430	504.94531	990.43079	-180.81790	503.17838	997.43884	115.51876	299.08136	1023.60773	-74.68661	304.80911	1024.35828	-8.89511	391.28604	881.39685	-214.16620	459.62915	517.79462	-219.83347	448.55893	516.14691	-91.98525	531.91150	799.04779	-201.08949	437.86609	879.57196	149.20154	478.19574	515.02319	148.43228	443.07343	496.92365	22.82043	540.06720	618.83514	97.09712	451.86087	455.29059	169.49167	386.43823	48.42936	144.04782	403.22940	75.14365	47.79886	496.46820	425.04965	118.42139	431.78284	471.52057	-233.49304	384.12936	54.33604	-200.84975	402.55624	78.58727	-106.41222	479.05939	428.45941	-192.26520	336.14767	67.10582	-153.22366	502.19049	9.43697	-229.79720	589.18549	30.52194	-145.34311	531.05145	22.75073	-106.09139	332.75186	72.08147	101.49274	496.04327	19.18615	174.16161	583.35095	27.73770	100.63318	527.10419	22.72757	54.90496	
18	0.18000	370.68533	1587.03638	-42.04107	527.80975	1497.79407	-27.79355	555.64514	1436.96411	-35.56948	429.22189	1561.49561	-146.62357	417.71854	1560.76929	73.29811	504.90405	990.50201	-180.89722	503.22537	997.46600	115.44970	299.08789	1023.59180	-74.69328	304.83569	1024.34033	-8.92867	391.24390	881.31494	-214.22183	459.61008	517.81659	-219.86049	448.54694	516.28510	-92.01479	531.90729	799.07025	-201.15897	437.89157	879.58783	149.13045	478.21310	515.05658	148.39879	443.12122	497.00662	22.81822	540.08826	618.87665	97.07632	451.87570	455.37238	169.43460	386.41550	48.44403	144.00204	403.17584	75.24645	47.72416	496.50558	425.05267	118.41312	431.73718	471.55847	-233.55899	384.11264	54.42438	-200.93138	402.47186	78.69637	-106.41253	479.04785	428.48016	-192.28447	336.13486	67.14171	-153.23936	502.16702	9.46667	-229.83064	589.16174	30.56468	-145.37312	531.05005	22.77751	-106.09736	332.73727	72.09399	101.47474	496.00793	19.27431	174.15437	583.35181	27.79853	100.62296	527.04852	22.77067	54.88178	
19	0.19000	370.70630	1587.02039	-42.00663	527.85577	1497.78247	-27.78430	555.68933	1436.92578	-35.54540	429.23251	1561.44360	-146.59586	417.69888	1560.68799	73.30418	504.86200	990.48914	-180.95663	503.25790	997.44373	115.42348	299.04181	1023.51727	-74.67310	304.84619	1024.27710	-8.92177	391.31491	881.29846	-214.18243	459.60818	517.76447	-219.84929	448.55093	516.18768	-92.04330	531.91327	799.07056	-201.23889	437.92899	879.56104	149.06985	478.22986	515.05371	148.37460	443.07251	496.93951	22.79251	540.09692	618.87848	97.01585	451.88916	455.33704	169.43382	386.40851	48.39775	143.98045	403.15558	75.08920	47.76284	496.52753	425.06284	118.40160	431.79822	471.49994	-233.54231	384.14130	54.31503	-200.87144	402.48663	78.56524	-106.39891	479.09363	428.45401	-192.34174	336.13431	67.12463	-153.21700	502.17740	9.51704	-229.86613	589.17670	30.58815	-145.38762	531.03113	22.77805	-106.12981	332.73788	72.11449	101.49386	495.98306	19.32583	174.23875	583.28918	27.71942	100.58447	527.10620	22.51738	54.79137	
20	0.20000	370.73483	1587.06189	-41.95963	527.85559	1497.76489	-27.78820	555.71814	1436.89905	-35.50067	429.29742	1561.47546	-146.55844	417.74023	1560.62744	73.33924	505.00259	990.40649	-181.01648	503.29507	997.37909	115.40073	299.12527	1023.55261	-74.66660	304.85748	1024.30896	-8.92084	391.25833	881.37561	-214.24075	459.59680	517.79108	-219.88924	448.56848	516.12189	-92.03598	531.92810	799.00653	-201.26558	437.96368	879.54095	149.13760	478.25644	514.97559	148.36815	443.08850	496.90320	22.74980	540.09998	618.83746	97.02513	451.90778	455.26501	169.46021	386.44009	48.42226	144.02740	403.18280	75.12094	47.80534	496.55978	425.02646	118.35345	431.77979	471.54416	-233.56528	384.15063	54.29692	-200.83577	402.50360	78.59360	-106.36659	479.05521	428.42477	-192.34375	336.13440	67.07118	-153.22182	502.19272	9.43824	-229.82156	589.20459	30.52569	-145.36098	531.05890	22.74106	-106.12042	332.75067	72.07626	101.51648	495.99295	19.29589	174.22653	583.32819	27.72072	100.61390	527.10577	22.64625	54.83199	
